<svg version="1.1" id="Layer_1" xmlns="http://www.w3.org/2000/svg" xmlns:xlink="http://www.w3.org/1999/xlink" x="0px" y="0px"
	 width="100%" viewBox="0 0 150 150" enable-background="new 0 0 150 150" xml:space="preserve">
<path fill="#015285" opacity="1.000000" stroke="none" 
	d="
M1.000000,138.000000 
	C1.000000,96.979103 1.000000,55.958210 1.352878,14.564846 
	C5.191782,10.592189 8.691148,7.004739 12.152554,3.381031 
	C12.842783,2.658435 13.387946,1.797270 14.000000,1.000000 
	C55.020893,1.000000 96.041786,1.000000 137.423309,1.352077 
	C141.730484,5.750862 145.665665,9.808860 149.650208,13.817786 
	C149.904175,14.073299 150.541183,13.948092 151.000000,14.000000 
	C151.000000,55.020893 151.000000,96.041786 150.647125,137.435181 
	C146.808716,141.408157 143.309937,144.995972 139.848892,148.619827 
	C139.158630,149.342575 138.612564,150.203049 138.000000,151.000000 
	C96.979103,151.000000 55.958210,151.000000 14.567369,150.649292 
	C10.446362,146.514023 6.713259,142.711288 2.921986,138.967453 
	C2.436396,138.487930 1.648080,138.314972 1.000000,138.000000 
M80.434654,22.361374 
	C79.656532,22.736910 78.878403,23.112448 77.369865,22.865593 
	C55.625172,21.813936 37.716404,37.899857 36.335690,59.723091 
	C34.995224,80.910202 51.846298,99.604729 73.361420,100.799301 
	C94.864693,101.993217 114.122337,85.608284 115.187759,64.526184 
	C115.866951,51.086349 115.511002,37.594204 115.787872,23.467335 
	C110.507812,18.448847 105.245514,13.387330 96.067741,15.539821 
	C89.481018,14.487835 84.991371,17.921495 80.434654,22.361374 
M80.828148,114.791199 
	C80.888283,119.859634 80.948425,124.928070 80.881836,130.750870 
	C81.402908,134.768539 84.222626,135.831299 87.675026,135.868271 
	C94.168785,135.937820 100.663795,135.916153 107.158173,135.896683 
	C115.257072,135.872406 117.077934,133.557785 115.446838,125.401039 
	C112.117554,124.963768 109.510818,127.328316 106.826218,127.929077 
	C100.890892,129.257278 94.453590,128.342239 88.363174,128.342239 
	C88.363174,123.717361 88.363174,119.977264 88.363174,115.852814 
	C94.362953,115.852814 99.999664,115.831810 105.635849,115.877090 
	C106.416557,115.883362 107.657700,115.974213 107.900948,116.437721 
	C109.917503,120.280396 113.025307,117.882439 115.988609,117.528633 
	C115.958946,117.357719 115.929283,117.186813 116.069641,116.201553 
	C115.935417,110.540192 114.386169,108.335831 109.539513,108.183891 
	C102.059357,107.949387 94.560318,107.967705 87.080811,108.220268 
	C83.699921,108.334435 80.922485,109.865227 80.828148,114.791199 
M69.359116,131.028366 
	C69.870026,131.020386 70.380943,131.012405 71.069534,131.838623 
	C71.882408,135.754410 70.485313,138.183456 66.534241,138.424774 
	C66.722389,140.839966 66.880783,142.873154 67.036850,144.876480 
	C73.683327,145.613235 77.474152,144.252838 77.720390,139.695770 
	C78.280373,129.332596 77.896942,118.918442 77.896942,108.233559 
	C66.459297,108.233559 55.480698,108.181648 44.502934,108.254944 
	C38.817341,108.292908 35.934994,111.345596 35.976917,116.964790 
	C36.022320,123.051224 38.773258,125.982979 44.592369,126.039886 
	C49.421326,126.087120 54.251682,126.012367 59.080009,126.085129 
	C60.015106,126.099220 60.943695,126.545029 61.875286,126.791695 
	C60.242851,128.116928 58.705200,128.351456 57.165779,128.363693 
	C51.171005,128.411423 45.175282,128.350845 39.180752,128.412598 
	C37.085472,128.434174 34.590294,128.415955 36.944118,132.066711 
	C36.963505,132.356781 36.979839,132.647018 36.407562,133.470627 
	C35.400715,136.757614 37.890781,136.071701 39.519119,136.088135 
	C45.788174,136.151382 52.064270,135.945480 58.325935,136.169724 
	C62.876060,136.332642 66.357605,134.837570 69.359116,131.028366 
z"/>
<path fill="#000000" opacity="1.000000" stroke="none" 
	d="
M151.000000,13.523338 
	C150.541183,13.948092 149.904175,14.073299 149.650208,13.817786 
	C145.665665,9.808860 141.730484,5.750862 137.891968,1.352077 
	C142.256302,1.000000 146.512589,1.000000 151.000000,1.000000 
	C151.000000,5.013751 151.000000,9.030214 151.000000,13.523338 
z"/>
<path fill="#000000" opacity="1.000000" stroke="none" 
	d="
M1.000000,138.476654 
	C1.648080,138.314972 2.436396,138.487930 2.921986,138.967453 
	C6.713259,142.711288 10.446362,146.514023 14.098712,150.649292 
	C9.743702,151.000000 5.487404,151.000000 1.000000,151.000000 
	C1.000000,146.986252 1.000000,142.969788 1.000000,138.476654 
z"/>
<path fill="#000000" opacity="1.000000" stroke="none" 
	d="
M138.476654,151.000000 
	C138.612564,150.203049 139.158630,149.342575 139.848892,148.619827 
	C143.309937,144.995972 146.808716,141.408157 150.647125,137.903839 
	C151.000000,142.256302 151.000000,146.512589 151.000000,151.000000 
	C146.986252,151.000000 142.969788,151.000000 138.476654,151.000000 
z"/>
<path fill="#000000" opacity="1.000000" stroke="none" 
	d="
M13.523338,1.000000 
	C13.387946,1.797270 12.842783,2.658435 12.152554,3.381031 
	C8.691148,7.004739 5.191782,10.592189 1.352878,14.096189 
	C1.000000,9.743702 1.000000,5.487404 1.000000,1.000000 
	C5.013751,1.000000 9.030214,1.000000 13.523338,1.000000 
z"/>
<path fill="#F8F103" opacity="1.000000" stroke="none" 
	d="
M115.619186,24.125511 
	C115.511002,37.594204 115.866951,51.086349 115.187759,64.526184 
	C114.122337,85.608284 94.864693,101.993217 73.361420,100.799301 
	C51.846298,99.604729 34.995224,80.910202 36.335690,59.723091 
	C37.716404,37.899857 55.625172,21.813936 77.908081,23.413338 
	C79.378868,24.247627 80.311455,24.534174 81.488464,25.054893 
	C85.137199,31.810280 88.541519,38.331490 91.622192,44.765289 
	C83.104691,36.503986 70.098793,35.863094 60.811115,43.175549 
	C51.383373,50.598282 49.028233,64.043945 55.374763,74.211998 
	C61.743828,84.416145 74.806427,88.219704 85.627670,83.021027 
	C96.163719,77.959358 101.568817,65.577484 98.037285,54.881641 
	C97.654396,53.722012 98.060234,52.301956 98.399315,50.903572 
	C99.145309,49.922329 99.592194,49.040222 100.181496,47.839890 
	C104.879341,39.679928 109.434769,31.838188 114.262970,24.021542 
	C114.896896,24.072929 115.258041,24.099220 115.619186,24.125511 
z"/>
<path fill="#E3E50B" opacity="1.000000" stroke="none" 
	d="
M36.953953,131.630783 
	C34.590294,128.415955 37.085472,128.434174 39.180752,128.412598 
	C45.175282,128.350845 51.171005,128.411423 57.165779,128.363693 
	C58.705200,128.351456 60.242851,128.116928 61.875286,126.791695 
	C60.943695,126.545029 60.015106,126.099220 59.080009,126.085129 
	C54.251682,126.012367 49.421326,126.087120 44.592369,126.039886 
	C38.773258,125.982979 36.022320,123.051224 35.976917,116.964790 
	C35.934994,111.345596 38.817341,108.292908 44.502934,108.254944 
	C55.480698,108.181648 66.459297,108.233559 77.896942,108.233559 
	C77.896942,118.918442 78.280373,129.332596 77.720390,139.695770 
	C77.474152,144.252838 73.683327,145.613235 67.036850,144.876480 
	C66.880783,142.873154 66.722389,140.839966 66.534241,138.424774 
	C70.485313,138.183456 71.882408,135.754410 71.078384,130.962341 
	C71.087234,125.344849 71.087234,120.603645 71.087234,115.555138 
	C61.328114,115.682678 52.205936,115.175293 43.164753,117.003273 
	C47.894009,118.162170 52.602814,118.147217 57.311493,118.165367 
	C66.318932,118.200081 69.946739,122.257278 68.848236,131.039413 
	C66.357605,134.837570 62.876060,136.332642 58.325935,136.169724 
	C52.064270,135.945480 45.788174,136.151382 39.519119,136.088135 
	C37.890781,136.071701 35.400715,136.757614 37.165089,133.273438 
	C42.414639,133.085983 46.911980,133.234756 51.397079,133.063354 
	C55.285267,132.914764 59.159588,132.403320 63.379417,132.033707 
	C64.155472,131.339294 64.592148,130.663406 65.347763,129.871078 
	C66.044815,128.550018 66.422928,127.345406 66.801041,126.140785 
	C66.324562,126.065224 65.848083,125.989655 65.371605,125.914093 
	C65.251801,127.266808 65.132004,128.619522 64.705849,129.940674 
	C63.930141,130.200348 63.460781,130.491577 62.560150,130.981506 
	C53.737236,131.330399 45.345592,131.480591 36.953953,131.630783 
M39.392429,115.198395 
	C39.013214,116.072197 38.634003,116.945999 38.254787,117.819801 
	C38.660172,117.917435 39.065559,118.015076 39.470943,118.112709 
	C39.649994,117.077621 39.829044,116.042526 40.520161,114.906273 
	C40.983643,114.450195 41.447128,113.994118 42.822163,113.244881 
	C52.885216,113.191292 62.948269,113.137695 73.239037,113.421303 
	C73.407532,113.636497 73.602631,113.824013 73.948830,114.915779 
	C73.948830,123.239906 73.948830,131.564041 73.948830,139.888168 
	C75.667404,130.991028 75.364761,121.982964 75.039146,112.117134 
	C74.546295,111.765144 74.055725,111.109718 73.560249,111.105980 
	C63.685104,111.031425 53.808590,110.974091 43.935116,111.111725 
	C42.997208,111.124794 42.077652,112.454140 40.751633,113.371086 
	C40.498497,113.911308 40.245361,114.451538 39.392429,115.198395 
M63.492374,122.244637 
	C56.151127,119.701836 48.832218,121.285629 41.504395,121.222305 
	C41.501831,121.809196 41.499268,122.396080 41.496700,122.982971 
	C48.769897,122.982971 56.043095,122.982971 63.492374,122.244637 
z"/>
<path fill="#D5DC13" opacity="1.000000" stroke="none" 
	d="
M115.686249,117.952156 
	C113.025307,117.882439 109.917503,120.280396 107.900948,116.437721 
	C107.657700,115.974213 106.416557,115.883362 105.635849,115.877090 
	C99.999664,115.831810 94.362953,115.852814 88.363174,115.852814 
	C88.363174,119.977264 88.363174,123.717361 88.363174,128.342239 
	C94.453590,128.342239 100.890892,129.257278 106.826218,127.929077 
	C109.510818,127.328316 112.117554,124.963768 115.446838,125.401039 
	C117.077934,133.557785 115.257072,135.872406 107.158173,135.896683 
	C100.663795,135.916153 94.168785,135.937820 87.675026,135.868271 
	C84.222626,135.831299 81.402908,134.768539 81.178238,130.033478 
	C81.322060,124.212715 81.169472,119.109360 81.016891,114.006004 
	C80.922485,109.865227 83.699921,108.334435 87.080811,108.220268 
	C94.560318,107.967705 102.059357,107.949387 109.539513,108.183891 
	C114.386169,108.335831 115.935417,110.540192 115.880066,116.698807 
	C115.517174,117.440430 115.515762,117.692459 115.686249,117.952156 
M108.697411,131.179123 
	C101.008553,131.179123 93.319695,131.179123 85.630836,131.179123 
	C85.640373,131.642334 85.649910,132.105545 85.659439,132.568756 
	C94.108963,132.568756 102.558487,132.568756 111.008018,132.568756 
	C111.057602,132.340500 111.107185,132.112228 111.156776,131.883972 
	C110.607292,131.643906 110.057816,131.403839 108.697411,131.179123 
M107.986259,112.927170 
	C108.888283,112.691040 109.790306,112.454918 110.692329,112.218796 
	C110.630104,112.055077 110.567879,111.891365 110.505661,111.727646 
	C102.443741,111.727646 94.381821,111.727646 86.319901,111.727646 
	C86.330269,112.126266 86.340645,112.524895 86.351013,112.923515 
	C93.259567,112.923515 100.168129,112.923515 107.986259,112.927170 
z"/>
<path fill="#075782" opacity="1.000000" stroke="none" 
	d="
M69.103676,131.033890 
	C69.946739,122.257278 66.318932,118.200081 57.311493,118.165367 
	C52.602814,118.147217 47.894009,118.162170 43.164753,117.003273 
	C52.205936,115.175293 61.328114,115.682678 71.087234,115.555138 
	C71.087234,120.603645 71.087234,125.344849 70.989548,130.545242 
	C70.380943,131.012405 69.870026,131.020386 69.103676,131.033890 
z"/>
<path fill="#B2C527" opacity="1.000000" stroke="none" 
	d="
M115.703537,23.796423 
	C115.258041,24.099220 114.896896,24.072929 114.045227,23.657188 
	C110.122795,23.194853 106.690887,23.121967 102.998611,22.945251 
	C102.493217,22.566738 102.248184,22.292053 101.880249,21.691692 
	C100.145798,20.077084 98.534233,18.788151 96.879211,17.198551 
	C96.871788,16.494551 96.907845,16.091213 96.943901,15.687878 
	C105.245514,13.387330 110.507812,18.448847 115.703537,23.796423 
z"/>
<path fill="#EFEC07" opacity="1.000000" stroke="none" 
	d="
M96.505821,15.613850 
	C96.907845,16.091213 96.871788,16.494551 96.588058,17.384953 
	C95.169266,19.262802 93.998146,20.653585 92.642845,22.236969 
	C92.257523,22.721916 92.056389,23.014261 91.449257,23.088995 
	C87.686813,22.726713 84.330353,22.582041 80.979965,22.478889 
	C80.986031,22.520411 81.062576,22.554834 81.062576,22.554834 
	C84.991371,17.921495 89.481018,14.487835 96.505821,15.613850 
z"/>
<path fill="#0A5D7D" opacity="1.000000" stroke="none" 
	d="
M63.040039,132.052246 
	C59.159588,132.403320 55.285267,132.914764 51.397079,133.063354 
	C46.911980,133.234756 42.414639,133.085983 37.457867,133.006821 
	C36.979839,132.647018 36.963505,132.356781 36.949036,131.848755 
	C45.345592,131.480591 53.737236,131.330399 62.579674,131.298615 
	C63.033657,131.628769 63.036846,131.840500 63.040039,132.052246 
z"/>
<path fill="#D8DE11" opacity="1.000000" stroke="none" 
	d="
M80.922516,114.398605 
	C81.169472,119.109360 81.322060,124.212715 81.241608,129.656281 
	C80.948425,124.928070 80.888283,119.859634 80.922516,114.398605 
z"/>
<path fill="#B2C527" opacity="1.000000" stroke="none" 
	d="
M80.748611,22.458103 
	C81.062576,22.554834 80.986031,22.520411 81.036194,22.874813 
	C81.138908,23.759718 81.191475,24.290218 81.244034,24.820721 
	C80.311455,24.534174 79.378868,24.247627 78.273285,23.724533 
	C78.878403,23.112448 79.656532,22.736910 80.748611,22.458103 
z"/>
<path fill="#D8DE11" opacity="1.000000" stroke="none" 
	d="
M115.837433,117.740395 
	C115.515762,117.692459 115.517174,117.440430 115.795059,117.105988 
	C115.929283,117.186813 115.958946,117.357719 115.837433,117.740395 
z"/>
<path fill="#045384" opacity="1.000000" stroke="none" 
	d="
M98.100212,51.002701 
	C98.060234,52.301956 97.654396,53.722012 98.037285,54.881641 
	C101.568817,65.577484 96.163719,77.959358 85.627670,83.021027 
	C74.806427,88.219704 61.743828,84.416145 55.374763,74.211998 
	C49.028233,64.043945 51.383373,50.598282 60.811115,43.175549 
	C70.098793,35.863094 83.104691,36.503986 91.698715,45.119278 
	C93.751221,46.699444 95.403564,47.838215 97.333450,49.114044 
	C97.774055,49.834969 97.937134,50.418835 98.100212,51.002701 
z"/>
<path fill="#F3EE05" opacity="1.000000" stroke="none" 
	d="
M98.399315,50.903572 
	C97.937134,50.418835 97.774055,49.834969 97.185043,48.747971 
	C95.124481,39.932098 93.489868,31.619352 91.855247,23.306606 
	C92.056389,23.014261 92.257523,22.721916 93.102753,22.284565 
	C96.498947,22.098827 99.251045,22.058098 102.003151,22.017368 
	C102.248184,22.292053 102.493217,22.566738 102.943550,23.353073 
	C101.617790,31.158686 100.036072,38.442978 98.639000,45.762512 
	C98.508347,46.447029 99.544617,47.354275 100.039085,48.158112 
	C99.592194,49.040222 99.145309,49.922329 98.399315,50.903572 
z"/>
<path fill="#0E5B7E" opacity="1.000000" stroke="none" 
	d="
M91.449257,23.088995 
	C93.489868,31.619352 95.124481,39.932098 96.907509,48.610912 
	C95.403564,47.838215 93.751221,46.699444 92.022354,45.206688 
	C88.541519,38.331490 85.137199,31.810280 81.488464,25.054893 
	C81.191475,24.290218 81.138908,23.759718 81.030121,22.833294 
	C84.330353,22.582041 87.686813,22.726713 91.449257,23.088995 
z"/>
<path fill="#105C7D" opacity="1.000000" stroke="none" 
	d="
M100.181496,47.839890 
	C99.544617,47.354275 98.508347,46.447029 98.639000,45.762512 
	C100.036072,38.442978 101.617790,31.158686 103.203918,23.456902 
	C106.690887,23.121967 110.122795,23.194853 113.772453,23.632093 
	C109.434769,31.838188 104.879341,39.679928 100.181496,47.839890 
z"/>
<path fill="#5E8D55" opacity="1.000000" stroke="none" 
	d="
M73.011322,113.084099 
	C62.948269,113.137695 52.885216,113.191292 42.202339,113.245491 
	C41.582512,113.246101 41.149574,113.172394 41.149574,113.172394 
	C42.077652,112.454140 42.997208,111.124794 43.935116,111.111725 
	C53.808590,110.974091 63.685104,111.031425 73.560249,111.105980 
	C74.055725,111.109718 74.546295,111.765144 74.771324,112.559357 
	C74.307716,113.008301 74.111931,113.015007 73.688850,113.021416 
	C73.461548,113.021126 73.011322,113.084099 73.011322,113.084099 
z"/>
<path fill="#4E855D" opacity="1.000000" stroke="none" 
	d="
M63.404335,122.613800 
	C56.043095,122.982971 48.769897,122.982971 41.496700,122.982971 
	C41.499268,122.396080 41.501831,121.809196 41.504395,121.222305 
	C48.832218,121.285629 56.151127,119.701836 63.404335,122.613800 
z"/>
<path fill="#478062" opacity="1.000000" stroke="none" 
	d="
M73.916153,113.021706 
	C74.111931,113.015007 74.307716,113.008301 74.797165,112.988953 
	C75.364761,121.982964 75.667404,130.991028 73.948830,139.888168 
	C73.948830,131.564041 73.948830,123.239906 73.945999,114.212753 
	C73.943161,113.509720 73.916153,113.021706 73.916153,113.021706 
z"/>
<path fill="#E0E30D" opacity="1.000000" stroke="none" 
	d="
M65.012207,129.972229 
	C65.132004,128.619522 65.251801,127.266808 65.371605,125.914093 
	C65.848083,125.989655 66.324562,126.065224 66.801041,126.140785 
	C66.422928,127.345406 66.044815,128.550018 65.332962,129.877899 
	C64.999229,130.001144 65.012207,129.972229 65.012207,129.972229 
z"/>
<path fill="#E0E30D" opacity="1.000000" stroke="none" 
	d="
M40.008095,115.007439 
	C39.829044,116.042526 39.649994,117.077621 39.470943,118.112709 
	C39.065559,118.015076 38.660172,117.917435 38.254787,117.819801 
	C38.634003,116.945999 39.013214,116.072197 39.696213,115.099197 
	C40.000000,115.000000 40.008095,115.007439 40.008095,115.007439 
z"/>
<path fill="#5E8E54" opacity="1.000000" stroke="none" 
	d="
M63.379417,132.033722 
	C63.036846,131.840500 63.033657,131.628769 63.010948,131.099915 
	C63.460781,130.491577 63.930141,130.200348 64.705856,129.940674 
	C65.012207,129.972229 64.999229,130.001144 65.014023,129.994324 
	C64.592148,130.663406 64.155472,131.339294 63.379417,132.033722 
z"/>
<path fill="#E0E30D" opacity="1.000000" stroke="none" 
	d="
M41.746559,113.392075 
	C41.447128,113.994118 40.983643,114.450195 40.264130,114.956856 
	C40.008095,115.007439 40.000000,115.000000 39.996113,114.995880 
	C40.245361,114.451538 40.498497,113.911308 40.950603,113.271744 
	C41.149574,113.172394 41.582512,113.246101 41.746559,113.392075 
z"/>
<path fill="#DCE10C" opacity="1.000000" stroke="none" 
	d="
M73.688850,113.021416 
	C73.916153,113.021706 73.943161,113.509720 73.883751,113.746780 
	C73.602631,113.824013 73.407532,113.636497 73.125183,113.252701 
	C73.011322,113.084099 73.461548,113.021126 73.688850,113.021416 
z"/>
<path fill="#588B57" opacity="1.000000" stroke="none" 
	d="
M109.102875,131.171448 
	C110.057816,131.403839 110.607292,131.643906 111.156776,131.883972 
	C111.107185,132.112228 111.057602,132.340500 111.008018,132.568756 
	C102.558487,132.568756 94.108963,132.568756 85.659439,132.568756 
	C85.649910,132.105545 85.640373,131.642334 85.630836,131.179123 
	C93.319695,131.179123 101.008553,131.179123 109.102875,131.171448 
z"/>
<path fill="#427E63" opacity="1.000000" stroke="none" 
	d="
M107.531471,112.925339 
	C100.168129,112.923515 93.259567,112.923515 86.351013,112.923515 
	C86.340645,112.524895 86.330269,112.126266 86.319901,111.727646 
	C94.381821,111.727646 102.443741,111.727646 110.505661,111.727646 
	C110.567879,111.891365 110.630104,112.055077 110.692329,112.218796 
	C109.790306,112.454918 108.888283,112.691040 107.531471,112.925339 
z"/>
<path fill="#0B5A7F" opacity="1.000000" stroke="none" 
	d="
M101.880249,21.691692 
	C99.251045,22.058098 96.498947,22.098827 93.286934,22.091963 
	C93.998146,20.653585 95.169266,19.262802 96.631531,17.685619 
	C98.534233,18.788151 100.145798,20.077084 101.880249,21.691692 
z"/>
</svg>